<?xml version="1.0" encoding="UTF-8" standalone="no"?>
<!DOCTYPE svg PUBLIC "-//W3C//DTD SVG 1.1//EN" "http://www.w3.org/Graphics/SVG/1.1/DTD/svg11.dtd">
<svg width="100%" height="100%" viewBox="0 0 16 16" version="1.1" xmlns="http://www.w3.org/2000/svg" xmlns:xlink="http://www.w3.org/1999/xlink" xml:space="preserve" xmlns:serif="http://www.serif.com/" style="fill-rule:evenodd;clip-rule:evenodd;stroke-linejoin:round;stroke-miterlimit:2;">
    <g transform="matrix(1,0,0,1,-18,-18)">
        <g transform="matrix(1,0,0,1,-98,18)">
            <rect id="paper-inactive" x="116" y="0" width="16" height="16" style="fill:none;"/>
            <clipPath id="_clip1">
                <rect id="paper-inactive1" serif:id="paper-inactive" x="116" y="0" width="16" height="16"/>
            </clipPath>
            <g clip-path="url(#_clip1)">
                <g transform="matrix(1,0,0,1,116,0)">
                    <path d="M0.641,15.359L0,15.359L0,0.641L0.641,0.641L0.641,15.359ZM0.641,0.641L0.641,0L15.359,-0L15.359,0.641L0.641,0.641ZM15.359,0.641L16,0.641L16,15.359L15.359,15.359L15.359,0.641ZM15.359,15.359L15.359,16L0.641,16L0.641,15.359L15.359,15.359Z" style="fill:rgb(115,115,140);"/>
                </g>
                <g transform="matrix(2.42682,0,0,1.20861,66.4457,-1.14311)">
                    <path d="M21.212,5.178L21.212,5.708L20.684,5.708L20.684,9.952L21.212,9.952L21.212,10.483L22.005,10.483L22.005,11.013L24.382,11.013L24.382,10.483L24.911,10.483L24.911,9.952L23.326,9.952L23.326,9.422L25.968,9.422L25.968,8.361L23.59,8.361L23.59,7.83L26.232,7.83L26.232,6.769L23.59,6.769L23.59,6.239L25.703,6.239L25.703,5.178L22.533,5.178L22.533,4.647L23.326,4.647L23.326,4.117L23.59,4.117L23.59,3.056L23.061,3.056L23.061,3.586L22.797,3.586L22.797,4.117L22.269,4.117L22.269,4.647L21.74,4.647L21.74,5.178L21.212,5.178Z" style="fill:rgb(185,185,198);"/>
                </g>
                <g transform="matrix(7.85191e-17,1.28231,-1.28231,7.85191e-17,134.594,-48.1013)">
                    <path d="M40.5,8L40.5,8.5L39.5,8.5L39.5,9.5L39,9.5L39,8L40.5,8ZM39.5,9.5L40,9.5L40,10L39.5,10L39.5,9.5ZM40,10L40.5,10L40.5,11L40,11L40,10ZM40.5,11L41,11L41,12L40.5,12L40.5,11ZM41,12L41.5,12L41.5,13L41,13L41,12ZM41.5,13L42,13L42,14L46,14L46,13L46.5,13L46.5,14.5L41.5,14.5L41.5,13ZM46.5,13L46.5,11.5L47,11.5L47,13L46.5,13ZM47,11.5L47,7L47.5,7L47.5,11.5L47,11.5ZM47,7L46.5,7L46.5,6L47,6L47,7ZM46.5,6L46,6L46,9L45.5,9L45.5,4L46,4L46,5.5L46.5,5.5L46.5,6ZM45.5,4L44.5,4L44.5,8.5L44,8.5L44,3.5L45.5,3.5L45.5,4ZM44,3.5L43,3.5L43,3L44,3L44,3.5ZM43,3.5L43,8.5L42.5,8.5L42.5,4.5L41.5,4.5L41.5,4L42.5,4L42.5,3.5L43,3.5ZM41.5,4.5L41.5,10.5L41,10.5L41,9L40.5,9L40.5,8.5L41,8.5L41,4.5L41.5,4.5Z" style="fill:rgb(115,115,140);"/>
                </g>
            </g>
        </g>
    </g>
</svg>
