<?xml version="1.0" encoding="UTF-8" standalone="no"?>
<!DOCTYPE svg PUBLIC "-//W3C//DTD SVG 1.1//EN" "http://www.w3.org/Graphics/SVG/1.1/DTD/svg11.dtd">
<svg width="100%" height="100%" viewBox="0 0 16 16" version="1.1" xmlns="http://www.w3.org/2000/svg" xmlns:xlink="http://www.w3.org/1999/xlink" xml:space="preserve" xmlns:serif="http://www.serif.com/" style="fill-rule:evenodd;clip-rule:evenodd;stroke-linejoin:round;stroke-miterlimit:2;">
    <g transform="matrix(1,0,0,1,-36,-18)">
        <g transform="matrix(1,0,0,1,-196,18)">
            <rect id="scissors-winner" x="232" y="0" width="16" height="16" style="fill:none;"/>
            <clipPath id="_clip1">
                <rect id="scissors-winner1" serif:id="scissors-winner" x="232" y="0" width="16" height="16"/>
            </clipPath>
            <g clip-path="url(#_clip1)">
                <g transform="matrix(3.81925,0,0,5.42041,226.527,-4.77361)">
                    <rect x="1.447" y="0.881" width="4.189" height="2.952" style="fill:rgb(0,0,51);"/>
                </g>
                <g transform="matrix(1,0,0,1,196.694,-0.367359)">
                    <path d="M38.23,5.482L38.23,6.123L36.947,6.123L36.947,11.253L38.23,11.253L38.23,11.894L40.153,11.894L40.153,12.535L44,12.535L44,11.894L44.641,11.894L44.641,11.253L43.359,11.253L43.359,10.611L45.283,10.611L45.283,9.329L44,9.329L44,8.688L45.924,8.688L45.924,9.329L47.847,9.329L47.847,9.97L49.771,9.97L49.771,8.688L47.847,8.688L47.847,8.047L45.924,8.047L45.924,7.406L44,7.406L44,6.764L45.924,6.764L45.924,6.123L47.847,6.123L47.847,5.482L49.771,5.482L49.771,4.2L47.847,4.2L47.847,4.841L45.283,4.841L45.283,5.482L41.436,5.482L41.436,4.841L43.359,4.841L43.359,4.2L40.794,4.2L40.794,4.841L39.512,4.841L39.512,5.482L38.23,5.482Z" style="fill:rgb(153,255,220);"/>
                </g>
                <g transform="matrix(7.85191e-17,1.28231,-1.28231,7.85191e-17,251.594,-25.0196)">
                    <path d="M22.5,4L22.5,5.5L22,5.5L22,4L22.5,4ZM22.5,5.5L23,5.5L23,7.5L22.5,7.5L22.5,5.5ZM23,7.5L23.5,7.5L23.5,10.5L23,10.5L23,9L22.5,9L22.5,8.5L23,8.5L23,7.5ZM22.5,9L22.5,11L22,11L22,9L22.5,9ZM22.5,11L23,11L23,12L22.5,12L22.5,11ZM23,12L23.5,12L23.5,13L23,13L23,12ZM23.5,13L24,13L24,14L28,14L28,13L28.5,13L28.5,14.5L23.5,14.5L23.5,13ZM28.5,13L28.5,11.5L29,11.5L29,13L28.5,13ZM29,11.5L29,8.5L29.5,8.5L29.5,11.5L29,11.5ZM29,8.5L28.5,8.5L28.5,8L29,8L29,8.5ZM28.5,8L28,8L28,9L27.5,9L27.5,7.5L28.5,7.5L28.5,8ZM27.5,7.5L26.5,7.5L26.5,8.5L26,8.5L26,7L26.5,7L26.5,5.5L27,5.5L27,7L27.5,7L27.5,7.5ZM27,5.5L27,4L27.5,4L27.5,5.5L27,5.5ZM27,4L26,4L26,3.5L27,3.5L27,4ZM26,4L26,5.5L25.5,5.5L25.5,4L26,4ZM25.5,5.5L25.5,7L25,7L25,5.5L25.5,5.5ZM25,7L25,8.5L24.5,8.5L24.5,7L25,7ZM24.5,7L24,7L24,5.5L24.5,5.5L24.5,7ZM24,5.5L23.5,5.5L23.5,4L24,4L24,5.5ZM23.5,4L22.5,4L22.5,3.5L23.5,3.5L23.5,4Z" style="fill:rgb(0,204,135);"/>
                </g>
            </g>
        </g>
    </g>
</svg>
