<?xml version="1.0" encoding="UTF-8" standalone="no"?>
<!DOCTYPE svg PUBLIC "-//W3C//DTD SVG 1.1//EN" "http://www.w3.org/Graphics/SVG/1.1/DTD/svg11.dtd">
<svg width="100%" height="100%" viewBox="0 0 16 16" version="1.1" xmlns="http://www.w3.org/2000/svg" xmlns:xlink="http://www.w3.org/1999/xlink" xml:space="preserve" xmlns:serif="http://www.serif.com/" style="fill-rule:evenodd;clip-rule:evenodd;stroke-linejoin:round;stroke-miterlimit:2;">
    <g transform="matrix(1,0,0,1,0,-90)">
        <g transform="matrix(1,0,0,1,0,90)">
            <rect id="unknown-choice" x="0" y="0" width="16" height="16" style="fill:none;"/>
            <g id="unknown-choice1" serif:id="unknown-choice">
                <g transform="matrix(1.19671,0,0,1.31068,-1.13839,-120.662)">
                    <rect x="1.487" y="92.55" width="12.299" height="11.229"/>
                </g>
                <g transform="matrix(1,0,0,1,0,-90)">
                    <path d="M0.641,90.641L0.641,105.359L0,105.359L0,90.641L0.641,90.641ZM0.641,105.359L15.359,105.359L15.359,106L0.641,106L0.641,105.359ZM15.359,105.359L15.359,90.641L16,90.641L16,105.359L15.359,105.359ZM15.359,90.641L0.641,90.641L0.641,90L15.359,90L15.359,90.641Z" style="fill:rgb(115,115,140);"/>
                </g>
                <g transform="matrix(1,0,0,1,0,-90)">
                    <path d="M8.966,99.923L7.034,99.923L7.034,98L8.316,98L8.316,97.359L9.599,97.359L9.599,96.718L10.24,96.718L10.24,95.435L5.752,95.435L5.752,96.718L3.828,96.718L3.828,94.794L4.47,94.794L4.47,94.153L11.53,94.153L11.53,94.794L12.172,94.794L12.172,97.359L11.53,97.359L11.53,98L9.607,98L9.607,98.641L8.966,98.641L8.966,99.923ZM7.034,100.565L8.966,100.565L8.966,101.847L7.034,101.847L7.034,100.565Z" style="fill:rgb(69,69,84);"/>
                </g>
                <g transform="matrix(1,0,0,1,-0.324675,-90)">
                    <path d="M11.855,98L11.855,98.641L9.932,98.641L9.932,98L11.855,98ZM12.496,97.359L12.496,98L11.855,98L11.855,97.359L12.496,97.359ZM9.932,98.641L9.932,99.923L9.291,99.923L9.291,98.641L9.932,98.641ZM4.153,94.794L4.153,94.153L4.794,94.153L4.794,94.794L4.153,94.794ZM4.153,96.718L6.077,96.718L6.077,97.359L4.153,97.359L4.153,96.718ZM7.359,98L7.359,99.923L6.718,99.923L6.718,98L7.359,98ZM9.923,96.718L9.923,97.359L8.641,97.359L8.641,98L7.359,98L7.359,97.359L8,97.359L8,96.718L9.923,96.718ZM7.359,99.923L9.282,99.923L9.282,100.565L7.359,100.565L7.359,99.923ZM11.855,94.153L12.496,94.153L12.496,94.794L11.855,94.794L11.855,94.153ZM6.077,96.718L6.077,95.435L10.565,95.435L10.565,96.718L9.923,96.718L9.923,96.077L6.718,96.077L6.718,96.718L6.077,96.718ZM7.359,101.847L9.282,101.847L9.282,102.488L7.359,102.488L7.359,101.847ZM7.359,100.565L7.359,101.847L6.718,101.847L6.718,100.565L7.359,100.565ZM4.794,94.153L4.794,93.512L11.855,93.512L11.855,94.153L4.794,94.153ZM4.153,96.718L3.512,96.718L3.512,94.794L4.153,94.794L4.153,96.718ZM12.496,94.794L13.137,94.794L13.137,97.359L12.496,97.359L12.496,94.794ZM9.932,101.847L9.291,101.847L9.291,100.565L9.932,100.565L9.932,101.847Z" style="fill:rgb(115,115,140);"/>
                </g>
            </g>
        </g>
    </g>
</svg>
